<svg xmlns="http://www.w3.org/2000/svg" xmlns:xlink="http://www.w3.org/1999/xlink" width="93.75" height="56" viewBox="0 0 93.75 56"><defs><style>.a{fill:rgba(0,0,0,0);}.b{clip-path:url(#a);}.c{fill:#5b57ba;}.d{filter:url(#b);}</style><clipPath id="a"><path d="M17.333,29.333H4a4,4,0,0,1-4-4V10.667A1.338,1.338,0,0,1,.515,9.614l12-9.334a1.333,1.333,0,0,1,1.637,0l12,9.334a1.338,1.338,0,0,1,.515,1.052V25.333a4,4,0,0,1-4,4Zm5.334-2.666A1.334,1.334,0,0,0,24,25.333V11.318l-10.667-8.3-10.667,8.3V25.333A1.334,1.334,0,0,0,4,26.666H8v-12a1.333,1.333,0,0,1,1.333-1.333h8a1.334,1.334,0,0,1,1.334,1.333v12Zm-6.667,0V16H10.667V26.666Z"/></clipPath><filter id="b" x="-29.125" y="-30" width="152" height="152" filterUnits="userSpaceOnUse"><feOffset dy="18" input="SourceAlpha"/><feGaussianBlur stdDeviation="20" result="c"/><feFlood flood-color="#6b67d2" flood-opacity="0.349"/><feComposite operator="in" in2="c"/><feComposite in="SourceGraphic"/></filter></defs><rect class="a" width="93.75" height="56"/><g transform="translate(30.875 12)"><rect class="a" width="32" height="32"/><path d="M17.333,29.333H4a4,4,0,0,1-4-4V10.667A1.338,1.338,0,0,1,.515,9.614l12-9.334a1.333,1.333,0,0,1,1.637,0l12,9.334a1.338,1.338,0,0,1,.515,1.052V25.333a4,4,0,0,1-4,4Zm5.334-2.666A1.334,1.334,0,0,0,24,25.333V11.318l-10.667-8.3-10.667,8.3V25.333A1.334,1.334,0,0,0,4,26.666H8v-12a1.333,1.333,0,0,1,1.333-1.333h8a1.334,1.334,0,0,1,1.334,1.333v12Zm-6.667,0V16H10.667V26.666Z" transform="translate(2.667 1.333)"/><g class="b" transform="translate(2.667 1.333)"><g class="d" transform="matrix(1, 0, 0, 1, -33.54, -13.33)"><rect class="c" width="32" height="32" transform="translate(30.88 12)"/></g></g></g></svg>