<svg xmlns="http://www.w3.org/2000/svg" xmlns:xlink="http://www.w3.org/1999/xlink" width="151.433" height="158.625" viewBox="0 0 151.433 158.625"><defs><style>.a{fill:#5b57ba;}.b{clip-path:url(#c);}.c{fill:#fafafa;}.d{filter:url(#d);}.e{filter:url(#a);}</style><filter id="a" x="0" y="0" width="151.433" height="158.625" filterUnits="userSpaceOnUse"><feOffset dy="18" input="SourceAlpha"/><feGaussianBlur stdDeviation="20" result="b"/><feFlood flood-color="#6b67d2" flood-opacity="0.349"/><feComposite operator="in" in2="b"/><feComposite in="SourceGraphic"/></filter><clipPath id="c"><path d="M3.334,14.666a2,2,0,0,1-2-2V4H.667a.666.666,0,1,1,0-1.333H3.334V2a2,2,0,0,1,2-2H8a2,2,0,0,1,2,2v.667h2.667a.666.666,0,1,1,0,1.333H12v8.667a2,2,0,0,1-2,2Zm-.667-2a.667.667,0,0,0,.667.667H10a.667.667,0,0,0,.667-.667V4h-8Zm6-10V2A.667.667,0,0,0,8,1.333H5.333A.667.667,0,0,0,4.667,2v.667Z"/></clipPath><filter id="d" x="7.717" y="11.511" width="136" height="136" filterUnits="userSpaceOnUse"><feOffset dy="18" input="SourceAlpha"/><feGaussianBlur stdDeviation="20" result="e"/><feFlood flood-opacity="0.078"/><feComposite operator="in" in2="e"/><feComposite in="SourceGraphic"/></filter></defs><g transform="translate(60 42)"><g class="e" transform="matrix(1, 0, 0, 1, -60, -42)"><rect class="a" width="31.433" height="38.625" rx="8" transform="translate(60 42)"/></g><g transform="translate(9.05 12.178)"><path d="M3.334,14.666a2,2,0,0,1-2-2V4H.667a.666.666,0,1,1,0-1.333H3.334V2a2,2,0,0,1,2-2H8a2,2,0,0,1,2,2v.667h2.667a.666.666,0,1,1,0,1.333H12v8.667a2,2,0,0,1-2,2Zm-.667-2a.667.667,0,0,0,.667.667H10a.667.667,0,0,0,.667-.667V4h-8Zm6-10V2A.667.667,0,0,0,8,1.333H5.333A.667.667,0,0,0,4.667,2v.667Z"/><g class="b"><g class="d" transform="matrix(1, 0, 0, 1, -69.05, -54.18)"><rect class="c" width="16" height="16" transform="translate(67.72 53.51)"/></g></g></g></g></svg>