<svg xmlns="http://www.w3.org/2000/svg" xmlns:xlink="http://www.w3.org/1999/xlink" width="32" height="32" viewBox="0 0 32 32"><defs><style>.a{fill:rgba(0,0,0,0);}.b{clip-path:url(#a);}.c{fill:#5b57ba;}.d{filter:url(#b);}</style><clipPath id="a"><path d="M12.87,30.952,2.2,25.616A4.025,4.025,0,0,1,0,22.025V9.331A3.976,3.976,0,0,1,2.218,5.753L7.29,3.216A1.338,1.338,0,0,1,7.52,3.1L12.887.418a4,4,0,0,1,3.56,0L27.114,5.752a3.98,3.98,0,0,1,2.22,3.581V22.039a3.973,3.973,0,0,1-2.218,3.578L16.45,30.95a4,4,0,0,1-3.58,0Zm-10.2-8.917a1.341,1.341,0,0,0,.73,1.2L13.333,28.2V15.169L2.667,9.835ZM16,15.169V28.194l9.928-4.963a1.322,1.322,0,0,0,.739-1.193V9.835l-4.7,2.35-.073.036ZM4.321,7.682l10.345,5.172,3.686-1.843L8.007,5.839ZM21.334,9.521l3.678-1.839L15.259,2.806a1.332,1.332,0,0,0-1.183,0L10.989,4.348Z" transform="translate(0)"/></clipPath><filter id="b" x="-60" y="-42" width="152" height="152" filterUnits="userSpaceOnUse"><feOffset dy="18" input="SourceAlpha"/><feGaussianBlur stdDeviation="20" result="c"/><feFlood flood-color="#6b67d2" flood-opacity="0.349"/><feComposite operator="in" in2="c"/><feComposite in="SourceGraphic"/></filter></defs><rect class="a" width="32" height="32"/><path d="M12.87,30.952,2.2,25.616A4.025,4.025,0,0,1,0,22.025V9.331A3.976,3.976,0,0,1,2.218,5.753L7.29,3.216A1.338,1.338,0,0,1,7.52,3.1L12.887.418a4,4,0,0,1,3.56,0L27.114,5.752a3.98,3.98,0,0,1,2.22,3.581V22.039a3.973,3.973,0,0,1-2.218,3.578L16.45,30.95a4,4,0,0,1-3.58,0Zm-10.2-8.917a1.341,1.341,0,0,0,.73,1.2L13.333,28.2V15.169L2.667,9.835ZM16,15.169V28.194l9.928-4.963a1.322,1.322,0,0,0,.739-1.193V9.835l-4.7,2.35-.073.036ZM4.321,7.682l10.345,5.172,3.686-1.843L8.007,5.839ZM21.334,9.521l3.678-1.839L15.259,2.806a1.332,1.332,0,0,0-1.183,0L10.989,4.348Z" transform="translate(1.333)"/><g class="b" transform="translate(1.333)"><g class="d" transform="matrix(1, 0, 0, 1, -1.33, 0)"><rect class="c" width="32" height="32"/></g></g></svg>