<svg xmlns="http://www.w3.org/2000/svg" xmlns:xlink="http://www.w3.org/1999/xlink" width="32" height="32" viewBox="0 0 32 32"><defs><style>.a{fill:rgba(0,0,0,0);}.b{clip-path:url(#a);}.c{fill:#5b57ba;}.d{filter:url(#b);}</style><clipPath id="a"><path d="M22.667,26.666a1.335,1.335,0,0,1-1.333-1.333V22.667a4,4,0,0,0-4-4H6.667a4,4,0,0,0-4,4v2.666a1.333,1.333,0,0,1-2.666,0V22.667A6.675,6.675,0,0,1,6.667,16H17.333A6.675,6.675,0,0,1,24,22.667v2.666A1.335,1.335,0,0,1,22.667,26.666ZM12,13.333a6.667,6.667,0,1,1,6.667-6.666A6.674,6.674,0,0,1,12,13.333ZM12,2.666a4,4,0,1,0,4,4A4,4,0,0,0,12,2.666Z"/></clipPath><filter id="b" x="-60" y="-42" width="152" height="152" filterUnits="userSpaceOnUse"><feOffset dy="18" input="SourceAlpha"/><feGaussianBlur stdDeviation="20" result="c"/><feFlood flood-color="#6b67d2" flood-opacity="0.349"/><feComposite operator="in" in2="c"/><feComposite in="SourceGraphic"/></filter></defs><rect class="a" width="32" height="32"/><path d="M22.667,26.666a1.335,1.335,0,0,1-1.333-1.333V22.667a4,4,0,0,0-4-4H6.667a4,4,0,0,0-4,4v2.666a1.333,1.333,0,0,1-2.666,0V22.667A6.675,6.675,0,0,1,6.667,16H17.333A6.675,6.675,0,0,1,24,22.667v2.666A1.335,1.335,0,0,1,22.667,26.666ZM12,13.333a6.667,6.667,0,1,1,6.667-6.666A6.674,6.674,0,0,1,12,13.333ZM12,2.666a4,4,0,1,0,4,4A4,4,0,0,0,12,2.666Z" transform="translate(4 2.667)"/><g class="b" transform="translate(4 2.667)"><g class="d" transform="matrix(1, 0, 0, 1, -4, -2.67)"><rect class="c" width="32" height="32"/></g></g></svg>