<svg xmlns="http://www.w3.org/2000/svg" xmlns:xlink="http://www.w3.org/1999/xlink" width="32" height="32" viewBox="0 0 32 32"><defs><style>.a{fill:rgba(0,0,0,0);}.b{clip-path:url(#a);}.c{fill:#5b57ba;}.d{filter:url(#b);}</style><clipPath id="a"><path d="M1.328,26.669a1.336,1.336,0,0,1-1.078-.56,1.313,1.313,0,0,1-.179-1.2l2.363-7.091a12.426,12.426,0,0,1-1.1-5.155A12.677,12.677,0,0,1,13.972,0H14l.739,0A12.661,12.661,0,0,1,26.669,12v.665A12.672,12.672,0,0,1,14,25.333h-.034a12.431,12.431,0,0,1-5.124-1.1L1.757,26.6A1.351,1.351,0,0,1,1.328,26.669Zm12.648-24A9.993,9.993,0,0,0,5.059,17.132a1.342,1.342,0,0,1,.074,1.022l-1.69,5.07,5.07-1.69a1.326,1.326,0,0,1,.421-.069,1.343,1.343,0,0,1,.6.143,9.891,9.891,0,0,0,4.442,1.057H14a10.012,10.012,0,0,0,10-10l0-.6a9.927,9.927,0,0,0-9.336-9.407h-.692Z"/></clipPath><filter id="b" x="-60" y="-42" width="152" height="152" filterUnits="userSpaceOnUse"><feOffset dy="18" input="SourceAlpha"/><feGaussianBlur stdDeviation="20" result="c"/><feFlood flood-color="#6b67d2" flood-opacity="0.349"/><feComposite operator="in" in2="c"/><feComposite in="SourceGraphic"/></filter></defs><rect class="a" width="32" height="32"/><path d="M1.328,26.669a1.336,1.336,0,0,1-1.078-.56,1.313,1.313,0,0,1-.179-1.2l2.363-7.091a12.426,12.426,0,0,1-1.1-5.155A12.677,12.677,0,0,1,13.972,0H14l.739,0A12.661,12.661,0,0,1,26.669,12v.665A12.672,12.672,0,0,1,14,25.333h-.034a12.431,12.431,0,0,1-5.124-1.1L1.757,26.6A1.351,1.351,0,0,1,1.328,26.669Zm12.648-24A9.993,9.993,0,0,0,5.059,17.132a1.342,1.342,0,0,1,.074,1.022l-1.69,5.07,5.07-1.69a1.326,1.326,0,0,1,.421-.069,1.343,1.343,0,0,1,.6.143,9.891,9.891,0,0,0,4.442,1.057H14a10.012,10.012,0,0,0,10-10l0-.6a9.927,9.927,0,0,0-9.336-9.407h-.692Z" transform="translate(2.667 2.667)"/><g class="b" transform="translate(2.667 2.667)"><g class="d" transform="matrix(1, 0, 0, 1, -2.67, -2.67)"><rect class="c" width="32" height="32"/></g></g></svg>