<svg xmlns="http://www.w3.org/2000/svg" xmlns:xlink="http://www.w3.org/1999/xlink" width="16" height="24.002" viewBox="0 0 16 24.002"><defs><style>.a{opacity:0.32;clip-path:url(#a);}.b{fill:#5b57ba;}.c{filter:url(#b);}</style><clipPath id="a"><path d="M12.486,23.857,8,21.166,3.515,23.857a1,1,0,0,1-1.506-.989L3.14,14.35a8,8,0,1,1,9.721,0l1.131,8.518A1,1,0,0,1,13,24,.992.992,0,0,1,12.486,23.857ZM8.515,19.142l3.221,1.933-.75-5.653a8,8,0,0,1-5.971,0l-.751,5.653,3.221-1.933a1,1,0,0,1,1.03,0ZM2,8a6,6,0,0,0,9.187,5.082.994.994,0,0,1,.124-.08A6,6,0,1,0,2,8Z" transform="translate(4)"/></clipPath><filter id="b" x="-64" y="-42" width="144" height="144" filterUnits="userSpaceOnUse"><feOffset dy="18" input="SourceAlpha"/><feGaussianBlur stdDeviation="20" result="c"/><feFlood flood-color="#6b67d2" flood-opacity="0.349"/><feComposite operator="in" in2="c"/><feComposite in="SourceGraphic"/></filter></defs><g class="a" transform="translate(-4)"><g class="c" transform="matrix(1, 0, 0, 1, 4, 0)"><rect class="b" width="24" height="24" transform="translate(-4)"/></g></g></svg>