<svg xmlns="http://www.w3.org/2000/svg" xmlns:xlink="http://www.w3.org/1999/xlink" width="40" height="40" viewBox="0 0 40 40"><defs><style>.a{clip-path:url(#a);}.b{fill:#5b57ba;}.c{filter:url(#b);}</style><clipPath id="a"><path d="M20.133,40a5.005,5.005,0,0,1-5-5,1.165,1.165,0,0,0-.806-1.142,1.089,1.089,0,0,0-.44-.093,1.067,1.067,0,0,0-.742.3l-.1.1a4.967,4.967,0,0,1-3.537,1.466,5,5,0,0,1-3.537-8.539L6.059,27a1.093,1.093,0,0,0,.21-1.211,1.078,1.078,0,0,0-.986-.656H5a5,5,0,1,1,0-10,1.163,1.163,0,0,0,1.141-.806,1.078,1.078,0,0,0-.2-1.182l-.1-.1A4.964,4.964,0,0,1,4.372,9.509,5.029,5.029,0,0,1,5.837,5.972,4.968,4.968,0,0,1,9.375,4.505a5.033,5.033,0,0,1,3.536,1.466L13,6.059a1.082,1.082,0,0,0,1.2.216,1.632,1.632,0,0,1,.331-.106A1.077,1.077,0,0,0,15,5.283V5A5,5,0,1,1,25,5v.143a1.119,1.119,0,0,0,1.114,1.091,1.066,1.066,0,0,0,.741-.3l.1-.1a4.965,4.965,0,0,1,3.538-1.467,5.033,5.033,0,0,1,3.536,1.465,4.968,4.968,0,0,1,1.466,3.538,5.03,5.03,0,0,1-1.466,3.536L33.942,13a1.078,1.078,0,0,0-.217,1.2,1.688,1.688,0,0,1,.106.331,1.077,1.077,0,0,0,.886.475H35a5,5,0,0,1,0,10h-.143a1.106,1.106,0,0,0-.8,1.855l.1.1a4.968,4.968,0,0,1,1.466,3.538,5.033,5.033,0,0,1-1.465,3.536,5,5,0,0,1-7.074,0L27,33.942a1.073,1.073,0,0,0-.754-.307,1.125,1.125,0,0,0-.457.1,1.078,1.078,0,0,0-.656.985V35A5.006,5.006,0,0,1,20.133,40Zm-6.227-9.579a4.1,4.1,0,0,1,1.669.348,4.42,4.42,0,0,1,2.892,4.081V35A1.666,1.666,0,1,0,21.8,35v-.29a4.437,4.437,0,0,1,7.546-3.139l.1.1a1.668,1.668,0,1,0,2.359-2.36l-.113-.113a4.439,4.439,0,0,1,3.158-7.532H35a1.667,1.667,0,1,0,0-3.334h-.29a4.412,4.412,0,0,1-4.042-2.677,1.657,1.657,0,0,1-.121-.44,4.4,4.4,0,0,1,1.023-4.561l.1-.1a1.668,1.668,0,0,0,0-2.36,1.667,1.667,0,0,0-2.359,0l-.113.113A4.4,4.4,0,0,1,26.105,9.57,4.347,4.347,0,0,1,24.343,9.2,4.42,4.42,0,0,1,21.667,5.15V5a1.667,1.667,0,1,0-3.334,0v.29a4.414,4.414,0,0,1-2.677,4.042,1.657,1.657,0,0,1-.44.121,4.421,4.421,0,0,1-4.561-1.024l-.1-.1a1.676,1.676,0,0,0-1.179-.489A1.669,1.669,0,0,0,8.2,10.688l.113.113a4.366,4.366,0,0,1,.923,4.774A4.423,4.423,0,0,1,5.15,18.467H5A1.666,1.666,0,1,0,5,21.8h.29a4.439,4.439,0,0,1,3.138,7.546l-.1.1a1.67,1.67,0,0,0,1.181,2.849,1.681,1.681,0,0,0,1.18-.49l.113-.113A4.478,4.478,0,0,1,13.906,30.421ZM20,26.667A6.667,6.667,0,1,1,26.667,20,6.674,6.674,0,0,1,20,26.667Zm0-10A3.333,3.333,0,1,0,23.333,20,3.336,3.336,0,0,0,20,16.667Z"/></clipPath><filter id="b" x="-60" y="-42" width="160" height="160" filterUnits="userSpaceOnUse"><feOffset dy="18" input="SourceAlpha"/><feGaussianBlur stdDeviation="20" result="c"/><feFlood flood-color="#6b67d2" flood-opacity="0.349"/><feComposite operator="in" in2="c"/><feComposite in="SourceGraphic"/></filter></defs><path d="M20.133,40a5.005,5.005,0,0,1-5-5,1.165,1.165,0,0,0-.806-1.142,1.089,1.089,0,0,0-.44-.093,1.067,1.067,0,0,0-.742.3l-.1.1a4.967,4.967,0,0,1-3.537,1.466,5,5,0,0,1-3.537-8.539L6.059,27a1.093,1.093,0,0,0,.21-1.211,1.078,1.078,0,0,0-.986-.656H5a5,5,0,1,1,0-10,1.163,1.163,0,0,0,1.141-.806,1.078,1.078,0,0,0-.2-1.182l-.1-.1A4.964,4.964,0,0,1,4.372,9.509,5.029,5.029,0,0,1,5.837,5.972,4.968,4.968,0,0,1,9.375,4.505a5.033,5.033,0,0,1,3.536,1.466L13,6.059a1.082,1.082,0,0,0,1.2.216,1.632,1.632,0,0,1,.331-.106A1.077,1.077,0,0,0,15,5.283V5A5,5,0,1,1,25,5v.143a1.119,1.119,0,0,0,1.114,1.091,1.066,1.066,0,0,0,.741-.3l.1-.1a4.965,4.965,0,0,1,3.538-1.467,5.033,5.033,0,0,1,3.536,1.465,4.968,4.968,0,0,1,1.466,3.538,5.03,5.03,0,0,1-1.466,3.536L33.942,13a1.078,1.078,0,0,0-.217,1.2,1.688,1.688,0,0,1,.106.331,1.077,1.077,0,0,0,.886.475H35a5,5,0,0,1,0,10h-.143a1.106,1.106,0,0,0-.8,1.855l.1.1a4.968,4.968,0,0,1,1.466,3.538,5.033,5.033,0,0,1-1.465,3.536,5,5,0,0,1-7.074,0L27,33.942a1.073,1.073,0,0,0-.754-.307,1.125,1.125,0,0,0-.457.1,1.078,1.078,0,0,0-.656.985V35A5.006,5.006,0,0,1,20.133,40Zm-6.227-9.579a4.1,4.1,0,0,1,1.669.348,4.42,4.42,0,0,1,2.892,4.081V35A1.666,1.666,0,1,0,21.8,35v-.29a4.437,4.437,0,0,1,7.546-3.139l.1.1a1.668,1.668,0,1,0,2.359-2.36l-.113-.113a4.439,4.439,0,0,1,3.158-7.532H35a1.667,1.667,0,1,0,0-3.334h-.29a4.412,4.412,0,0,1-4.042-2.677,1.657,1.657,0,0,1-.121-.44,4.4,4.4,0,0,1,1.023-4.561l.1-.1a1.668,1.668,0,0,0,0-2.36,1.667,1.667,0,0,0-2.359,0l-.113.113A4.4,4.4,0,0,1,26.105,9.57,4.347,4.347,0,0,1,24.343,9.2,4.42,4.42,0,0,1,21.667,5.15V5a1.667,1.667,0,1,0-3.334,0v.29a4.414,4.414,0,0,1-2.677,4.042,1.657,1.657,0,0,1-.44.121,4.421,4.421,0,0,1-4.561-1.024l-.1-.1a1.676,1.676,0,0,0-1.179-.489A1.669,1.669,0,0,0,8.2,10.688l.113.113a4.366,4.366,0,0,1,.923,4.774A4.423,4.423,0,0,1,5.15,18.467H5A1.666,1.666,0,1,0,5,21.8h.29a4.439,4.439,0,0,1,3.138,7.546l-.1.1a1.67,1.67,0,0,0,1.181,2.849,1.681,1.681,0,0,0,1.18-.49l.113-.113A4.478,4.478,0,0,1,13.906,30.421ZM20,26.667A6.667,6.667,0,1,1,26.667,20,6.674,6.674,0,0,1,20,26.667Zm0-10A3.333,3.333,0,1,0,23.333,20,3.336,3.336,0,0,0,20,16.667Z"/><g class="a"><g class="c" transform="matrix(1, 0, 0, 1, 0, 0)"><rect class="b" width="40" height="40"/></g></g></svg>