<svg xmlns="http://www.w3.org/2000/svg" xmlns:xlink="http://www.w3.org/1999/xlink" width="33.333" height="33.333" viewBox="0 0 33.333 33.333"><defs><style>.a{clip-path:url(#a);}.b{fill:#5b57ba;}.c{filter:url(#b);}</style><clipPath id="a"><path d="M28.333,33.333H26.667a5.006,5.006,0,0,1-5-5v-5a5.006,5.006,0,0,1,5-5H30V16.667a13.333,13.333,0,1,0-26.666,0v1.666H6.666a5.006,5.006,0,0,1,5,5v5a5.006,5.006,0,0,1-5,5H5a5.006,5.006,0,0,1-5-5V16.667A16.667,16.667,0,0,1,28.452,4.882a16.558,16.558,0,0,1,4.882,11.786V28.333A5.006,5.006,0,0,1,28.333,33.333ZM26.667,21.667A1.669,1.669,0,0,0,25,23.333v5A1.669,1.669,0,0,0,26.667,30h1.666A1.669,1.669,0,0,0,30,28.333V21.667Zm-23.333,0v6.666A1.669,1.669,0,0,0,5,30H6.666a1.669,1.669,0,0,0,1.667-1.667v-5a1.669,1.669,0,0,0-1.667-1.667Z" transform="translate(0.333 0.333)"/></clipPath><filter id="b" x="-63.333" y="-45.333" width="160" height="160" filterUnits="userSpaceOnUse"><feOffset dy="18" input="SourceAlpha"/><feGaussianBlur stdDeviation="20" result="c"/><feFlood flood-color="#6b67d2" flood-opacity="0.349"/><feComposite operator="in" in2="c"/><feComposite in="SourceGraphic"/></filter></defs><g transform="translate(-0.333 -0.333)"><path d="M28.333,33.333H26.667a5.006,5.006,0,0,1-5-5v-5a5.006,5.006,0,0,1,5-5H30V16.667a13.333,13.333,0,1,0-26.666,0v1.666H6.666a5.006,5.006,0,0,1,5,5v5a5.006,5.006,0,0,1-5,5H5a5.006,5.006,0,0,1-5-5V16.667A16.667,16.667,0,0,1,28.452,4.882a16.558,16.558,0,0,1,4.882,11.786V28.333A5.006,5.006,0,0,1,28.333,33.333ZM26.667,21.667A1.669,1.669,0,0,0,25,23.333v5A1.669,1.669,0,0,0,26.667,30h1.666A1.669,1.669,0,0,0,30,28.333V21.667Zm-23.333,0v6.666A1.669,1.669,0,0,0,5,30H6.666a1.669,1.669,0,0,0,1.667-1.667v-5a1.669,1.669,0,0,0-1.667-1.667Z" transform="translate(0.333 0.333)"/><g class="a"><g class="c" transform="matrix(1, 0, 0, 1, 0.33, 0.33)"><rect class="b" width="40" height="40" transform="translate(-3.33 -3.33)"/></g></g></g></svg>