<svg xmlns="http://www.w3.org/2000/svg" xmlns:xlink="http://www.w3.org/1999/xlink" width="33.333" height="40" viewBox="0 0 33.333 40"><defs><style>.a{clip-path:url(#a);}.b{fill:#5b57ba;}.c{filter:url(#b);}</style><clipPath id="a"><path d="M16.667,40a1.658,1.658,0,0,1-.925-.28c-.038-.025-.252-.167-.7-.488-.565-.408-1.157-.858-1.761-1.339a51.84,51.84,0,0,1-5.328-4.872C2.677,27.447,0,21.945,0,16.667A16.667,16.667,0,0,1,28.452,4.882a16.558,16.558,0,0,1,4.882,11.785c0,5.278-2.677,10.78-7.957,16.354a51.84,51.84,0,0,1-5.328,4.872c-.6.481-1.2.931-1.761,1.339-.4.285-.618.436-.7.488A1.657,1.657,0,0,1,16.667,40Zm0-36.666A13.349,13.349,0,0,0,3.334,16.667c0,4.4,2.37,9.129,7.043,14.062a48.32,48.32,0,0,0,4.984,4.556c.429.342.868.679,1.306,1,.423-.314.863-.652,1.305-1a48.32,48.32,0,0,0,4.984-4.556C27.63,25.8,30,21.065,30,16.667A13.348,13.348,0,0,0,16.667,3.334Zm0,20a6.667,6.667,0,1,1,6.666-6.666A6.674,6.674,0,0,1,16.667,23.333Zm0-10A3.333,3.333,0,1,0,20,16.667,3.337,3.337,0,0,0,16.667,13.333Z" transform="translate(0.333)"/></clipPath><filter id="b" x="-63.333" y="-42" width="160" height="160" filterUnits="userSpaceOnUse"><feOffset dy="18" input="SourceAlpha"/><feGaussianBlur stdDeviation="20" result="c"/><feFlood flood-color="#6b67d2" flood-opacity="0.349"/><feComposite operator="in" in2="c"/><feComposite in="SourceGraphic"/></filter></defs><g transform="translate(-0.333)"><path d="M16.667,40a1.658,1.658,0,0,1-.925-.28c-.038-.025-.252-.167-.7-.488-.565-.408-1.157-.858-1.761-1.339a51.84,51.84,0,0,1-5.328-4.872C2.677,27.447,0,21.945,0,16.667A16.667,16.667,0,0,1,28.452,4.882a16.558,16.558,0,0,1,4.882,11.785c0,5.278-2.677,10.78-7.957,16.354a51.84,51.84,0,0,1-5.328,4.872c-.6.481-1.2.931-1.761,1.339-.4.285-.618.436-.7.488A1.657,1.657,0,0,1,16.667,40Zm0-36.666A13.349,13.349,0,0,0,3.334,16.667c0,4.4,2.37,9.129,7.043,14.062a48.32,48.32,0,0,0,4.984,4.556c.429.342.868.679,1.306,1,.423-.314.863-.652,1.305-1a48.32,48.32,0,0,0,4.984-4.556C27.63,25.8,30,21.065,30,16.667A13.348,13.348,0,0,0,16.667,3.334Zm0,20a6.667,6.667,0,1,1,6.666-6.666A6.674,6.674,0,0,1,16.667,23.333Zm0-10A3.333,3.333,0,1,0,20,16.667,3.337,3.337,0,0,0,16.667,13.333Z" transform="translate(0.333)"/><g class="a"><g class="c" transform="matrix(1, 0, 0, 1, 0.33, 0)"><rect class="b" width="40" height="40" transform="translate(-3.33)"/></g></g></g></svg>